<svg xmlns="http://www.w3.org/2000/svg">
  <!-- Line icons used across the site: <svg class="icon"><use href="imgs/icons.svg#i-name"/></svg> -->
  <symbol id="i-menu" viewBox="0 0 24 24"><path d="M4 7h16M4 12h16M4 17h10"/></symbol>
  <symbol id="i-close" viewBox="0 0 24 24"><path d="M6 6l12 12M18 6L6 18"/></symbol>
  <symbol id="i-arrow" viewBox="0 0 24 24"><path d="M5 12h14M13 6l6 6-6 6"/></symbol>
  <symbol id="i-check" viewBox="0 0 24 24"><path d="M5 12.5l4.5 4.5L19 7.5"/></symbol>
  <symbol id="i-globe" viewBox="0 0 24 24"><circle cx="12" cy="12" r="9"/><path d="M3.6 9h16.8M3.6 15h16.8M12 3a15 15 0 0 1 0 18M12 3a15 15 0 0 0 0 18"/></symbol>
  <symbol id="i-phone" viewBox="0 0 24 24"><path d="M5 4h4l2 5-2.5 1.5a11 11 0 0 0 5 5L15 13l5 2v4a2 2 0 0 1-2 2A16 16 0 0 1 3 6a2 2 0 0 1 2-2"/></symbol>
  <symbol id="i-mail" viewBox="0 0 24 24"><rect x="3" y="5" width="18" height="14" rx="2"/><path d="M3 7l9 6 9-6"/></symbol>
  <symbol id="i-whatsapp" viewBox="0 0 24 24"><path d="M3 21l1.65-3.8a9 9 0 1 1 3.4 2.9L3 21"/><path d="M9 10a.5.5 0 0 0 1 0V9a.5.5 0 0 0-1 0v1a5 5 0 0 0 5 5h1a.5.5 0 0 0 0-1h-1a.5.5 0 0 0 0 1"/></symbol>
  <symbol id="i-pin" viewBox="0 0 24 24"><path d="M12 21s-7-6.2-7-11a7 7 0 0 1 14 0c0 4.8-7 11-7 11z"/><circle cx="12" cy="10" r="2.5"/></symbol>
  <symbol id="i-sparkle" viewBox="0 0 24 24"><path d="M12 3l1.9 5.1L19 10l-5.1 1.9L12 17l-1.9-5.1L5 10l5.1-1.9z"/><path d="M19 17l.6 1.4L21 19l-1.4.6L19 21l-.6-1.4L17 19l1.4-.6z"/></symbol>
  <symbol id="i-users" viewBox="0 0 24 24"><circle cx="9" cy="8" r="3.5"/><path d="M3 20a6 6 0 0 1 12 0M16 4.5a3.5 3.5 0 0 1 0 7M21 20a6 6 0 0 0-4-5.6"/></symbol>

  <!-- savings -->
  <symbol id="i-clock" viewBox="0 0 24 24"><circle cx="12" cy="12" r="9"/><path d="M12 7v5l3 2"/></symbol>
  <symbol id="i-bolt" viewBox="0 0 24 24"><path d="M13 3L5 14h6l-1 7 8-11h-6l1-7z"/></symbol>
  <symbol id="i-wallet" viewBox="0 0 24 24"><path d="M17 8V5a1 1 0 0 0-1-1H5a2 2 0 0 0 0 4h14a1 1 0 0 1 1 1v3M20 16v3a1 1 0 0 1-1 1H5a2 2 0 0 1-2-2V6"/><path d="M21 12v4h-4a2 2 0 0 1 0-4h4"/></symbol>

  <!-- services -->
  <symbol id="i-legal" viewBox="0 0 24 24"><path d="M7 20h10M6 6l6-1 6 1M12 3v17M9 12L6 6l-3 6a3 3 0 0 0 6 0M21 12l-3-6-3 6a3 3 0 0 0 6 0"/></symbol>
  <symbol id="i-logistics" viewBox="0 0 24 24"><circle cx="7" cy="17" r="2"/><circle cx="17" cy="17" r="2"/><path d="M5 17H3V6a1 1 0 0 1 1-1h9v12M9 17h6M13 8h4l4 5v4h-2"/></symbol>
  <symbol id="i-gift" viewBox="0 0 24 24"><rect x="3" y="8" width="18" height="4" rx="1"/><path d="M12 8v13M19 12v7a2 2 0 0 1-2 2H7a2 2 0 0 1-2-2v-7M7.5 8a2.5 2.5 0 0 1 0-5C9 3 11 5 12 8c1-3 3-5 4.5-5a2.5 2.5 0 0 1 0 5"/></symbol>
  <symbol id="i-concierge" viewBox="0 0 24 24"><path d="M3 19h18M5 16a7 7 0 0 1 14 0M5 16h14M12 9V7M10 7h4"/></symbol>
  <symbol id="i-flask" viewBox="0 0 24 24"><path d="M9 3h6M10 3v6L5 18a2 2 0 0 0 1.8 3h10.4a2 2 0 0 0 1.8-3L14 9V3M7.5 14h9"/></symbol>
  <symbol id="i-car" viewBox="0 0 24 24"><path d="M5 17H3v-5l2-5h11l3 5h2v5h-2M9.5 17h5M4 12h16"/><circle cx="7.5" cy="17" r="2"/><circle cx="16.5" cy="17" r="2"/></symbol>
  <symbol id="i-trophy" viewBox="0 0 24 24"><path d="M8 21h8M12 17v4M7 4h10v5a5 5 0 0 1-10 0V4M7 6H4a3 3 0 0 0 3 5M17 6h3a3 3 0 0 1-3 5"/></symbol>

  <!-- privileges -->
  <symbol id="i-hotel" viewBox="0 0 24 24"><path d="M4 21V5a2 2 0 0 1 2-2h8a2 2 0 0 1 2 2v16M16 9h2a2 2 0 0 1 2 2v10M3 21h18M8 7h4M8 11h4M8 15h4"/></symbol>
  <symbol id="i-dining" viewBox="0 0 24 24"><path d="M7 3v8M5 3v5a2 2 0 0 0 4 0V3M7 11v10M17 3c-2 0-3 2-3 5v5h3v8"/></symbol>
  <symbol id="i-bag" viewBox="0 0 24 24"><path d="M6 7h12l-1 13H7L6 7z"/><path d="M9 7a3 3 0 0 1 6 0"/></symbol>
  <symbol id="i-calendar" viewBox="0 0 24 24"><rect x="4" y="5" width="16" height="16" rx="2"/><path d="M4 10h16M8 3v4M16 3v4"/></symbol>
</svg>
